<svg width="178" height="136" viewBox="0 0 178 136" fill="none" xmlns="http://www.w3.org/2000/svg">
<path d="M91.8925 113.333V78.1999H80.3225V64.3733H89.89C90.3328 64.3733 91.1827 64.4254 91.5365 64.1421C91.9148 63.8361 91.8836 63.2286 91.8925 62.7866V58.7066C91.8925 52.3237 91.828 46.5527 96.3803 41.4822C100.639 36.7426 106.048 36.2575 111.917 36.2666L115.255 36.4933L119.705 36.7199V49.1866L111.027 49.3521C109.432 49.5855 108.171 49.8439 107.116 51.2311C106.355 52.2285 106.148 53.6225 106.132 54.8533V62.3333C106.137 64.0854 106.104 64.3597 107.912 64.3733H119.26L117.702 78.1999H106.132V113.333H128.382C131.822 113.329 133.496 111.624 133.5 108.12V93.6133V27.8799C133.496 24.455 131.751 22.6711 128.382 22.6666H114.142H49.6175C46.2934 22.6711 44.5045 24.5026 44.5 27.8799V42.3866V108.12C44.5 108.804 44.4778 109.498 44.678 110.16C45.083 111.493 46.3067 112.739 47.615 113.152C48.6541 113.478 54.1454 113.333 55.625 113.333H91.8925Z" fill="#3B5998" stroke="black" stroke-width="0.00333333"/>
</svg>
