<svg width="105" height="106" viewBox="0 0 105 106" fill="none" xmlns="http://www.w3.org/2000/svg">
<g clip-path="url(#clip0)">
<path d="M19.4645 9.00054C16.9076 9.40663 15.2929 9.54087 12.8289 10.6159C7.08463 13.1202 2.92963 17.7293 0.958847 23.7655C0.479977 25.2308 0.00221187 27.5309 0 29.0673V85.9208C0.00221187 87.5802 0.515367 89.8678 1.03184 91.4482C3.14529 97.913 8.06339 102.801 14.3772 104.948C16.0405 105.513 18.3774 105.998 20.1281 106H74.8719C75.9724 105.998 77.6556 105.728 78.7427 105.483C85.8594 103.883 91.659 98.4884 93.9682 91.4482C94.4891 89.8588 94.9978 87.5914 95 85.9208V29.0673C94.9978 27.3967 94.4891 25.1293 93.9682 23.5399C91.5318 16.114 85.2213 10.5663 77.6368 9.29834C76.7985 9.15846 75.4846 8.98925 74.6508 9.00054H37.9336H25.7683H19.4645ZM32.1828 24.563H36.8277H45.454H56.2922C58.9464 24.5551 62.1238 24.3893 64.6973 24.8293C69.3644 25.629 73.6488 28.4187 76.3882 32.3387C77.388 33.7701 78.1864 35.2975 78.7427 36.9636C79.3875 38.896 79.6109 40.1267 79.748 42.1527L79.8487 43.5063V64.2623C79.8487 68.6865 80.197 73.3047 78.9164 77.5733C77.0164 83.9027 71.4524 88.7917 65.1397 90.072C64.2317 90.2559 63.0738 90.4319 62.1537 90.433H40.9197H32.8463C31.9262 90.4319 30.7683 90.2559 29.8603 90.072C25.6478 89.2181 22.1508 87.0026 19.3838 83.6647C17.5689 81.474 16.1998 78.5761 15.6169 75.7684C15.1469 73.5022 15.1513 71.193 15.1513 68.8873V61.7806V49.0337V43.7319L15.273 42.3783V41.2502C15.8525 36.4966 18.0412 32.0296 21.6764 28.9455C22.8708 27.9325 24.1481 27.0808 25.5471 26.3893C27.9868 25.1835 29.5838 24.968 32.1828 24.563ZM32.0722 30.2078C30.7683 30.4435 29.7597 30.659 28.5332 31.1959C23.9369 33.2095 20.6888 37.9056 20.681 43.0551V71.933C20.6888 76.725 23.5742 81.3251 27.759 83.4605C29.4688 84.3336 30.9607 84.6709 32.8463 84.8029L34.1735 84.9056H60.8265L62.1537 84.8029C64.0393 84.6709 65.5312 84.3336 67.241 83.4605C71.4325 81.3218 74.3112 76.7374 74.319 71.933V43.0551C74.3112 37.636 70.7457 32.773 65.8033 30.9388C64.6254 30.5011 63.2994 30.1976 62.0431 30.2078H42.6892H35.8324H32.0722ZM64.2549 35.6438C64.9296 35.575 65.6075 35.6359 66.2456 35.8886C70.3133 37.4961 69.0105 43.9823 64.5867 43.6744C60.9084 43.4183 59.6874 39.0686 61.9524 36.7583C62.5783 36.1199 63.4023 35.8074 64.2549 35.6438ZM45.7858 40.7178C48.1602 40.4933 50.6044 40.7652 52.8638 41.5334C54.4751 42.0816 56.0445 42.9287 57.3981 43.9722C58.7231 44.9931 59.9197 46.1888 60.8896 47.5673C65.1928 53.6824 65.0711 61.7524 60.6463 67.7593C59.4574 69.3746 57.6813 71.0013 55.9604 72.0143C53.7939 73.2889 51.8076 73.9658 49.3248 74.2703C47.4436 74.5005 45.193 74.294 43.3527 73.8361C41.5633 73.3905 39.7927 72.5636 38.2654 71.5191C36.7779 70.5016 35.3458 69.1084 34.2719 67.6465C28.8263 60.2284 30.2584 49.6835 37.4913 44.0568C40.1057 42.0241 42.5808 41.1983 45.7858 40.7178ZM46.6705 46.261L44.901 46.5407C41.5854 47.3665 38.8206 49.6925 37.415 52.8691C36.9571 53.9035 36.5092 55.5707 36.4959 56.7044C36.476 58.4574 36.4838 59.5166 37.0577 61.2166C38.5275 65.5731 42.6881 68.7204 47.2235 68.7745C48.951 68.7948 50.7481 68.4372 52.3108 67.6713C53.4046 67.1355 54.4398 66.3763 55.2969 65.5032C59.9783 60.7282 59.5116 52.7743 54.3015 48.6062C53.2188 47.7399 51.9713 47.0946 50.6519 46.6975C49.5073 46.3546 47.855 46.1143 46.6705 46.261Z" fill="#CE2D89" stroke="black" stroke-width="0.0846668"/>
</g>
<defs>
<clipPath id="clip0">
<rect width="105" height="106" fill="white"/>
</clipPath>
</defs>
</svg>
